<?xml version="1.0" standalone="no"?>
<!DOCTYPE svg PUBLIC "-//W3C//DTD SVG 20010904//EN"
 "http://www.w3.org/TR/2001/REC-SVG-20010904/DTD/svg10.dtd">
<svg version="1.0" xmlns="http://www.w3.org/2000/svg"
 width="2089.000000pt" height="314.000000pt" viewBox="0 0 2089.000000 314.000000"
 preserveAspectRatio="xMidYMid meet">

<g transform="translate(0.000000,314.000000) scale(0.100000,-0.100000)"
fill="#000000" stroke="none">
<path d="M7770 1585 l0 -1125 240 0 239 0 3 498 c3 548 1 529 68 606 62 71
162 100 257 77 91 -23 147 -91 172 -209 7 -35 11 -210 11 -512 l0 -460 241 0
240 0 -3 548 c-4 535 -4 549 -27 622 -61 204 -162 322 -327 381 -79 29 -262
33 -344 7 -76 -24 -170 -82 -235 -147 l-55 -55 0 447 0 447 -240 0 -240 0 0
-1125z"/>
<path d="M11190 1585 l0 -1125 240 0 240 0 0 1125 0 1125 -240 0 -240 0 0
-1125z"/>
<path d="M17880 2288 l0 -422 -47 46 c-61 58 -129 92 -226 112 -213 44 -425
-12 -580 -154 -115 -106 -186 -231 -229 -408 -33 -133 -30 -361 5 -494 59
-225 191 -394 373 -480 221 -104 499 -61 663 102 33 33 63 69 66 80 13 42 23
16 30 -82 4 -55 9 -107 12 -115 4 -10 49 -13 216 -13 l210 0 -6 203 c-4 111
-7 617 -7 1125 l0 922 -240 0 -240 0 0 -422z m-161 -649 c42 -21 73 -45 93
-73 61 -84 63 -93 63 -316 0 -200 -1 -206 -26 -260 -36 -77 -71 -115 -137
-147 -115 -56 -260 -28 -347 69 -150 166 -135 537 27 683 59 53 113 73 199 74
55 1 76 -4 128 -30z"/>
<path d="M9564 2679 c-62 -8 -88 -21 -136 -67 -49 -47 -72 -115 -65 -193 12
-140 123 -228 271 -217 206 17 305 231 182 393 -49 64 -148 97 -252 84z"/>
<path d="M14824 2679 c-62 -8 -88 -21 -136 -67 -49 -47 -72 -115 -65 -193 12
-140 123 -228 271 -217 206 17 305 231 182 393 -49 64 -148 97 -252 84z"/>
<path d="M4543 2578 c2 -7 157 -487 343 -1065 l338 -1053 282 0 282 0 45 133
c119 352 613 1814 642 1900 l34 97 -258 0 -257 0 -98 -327 c-225 -751 -286
-967 -347 -1236 -12 -54 -24 -96 -26 -93 -2 2 -17 62 -33 133 -48 219 -86 361
-246 918 -85 297 -159 555 -165 573 l-11 32 -265 0 c-207 0 -264 -3 -260 -12z"/>
<path d="M13290 1525 l0 -1065 245 0 245 0 0 430 0 430 380 0 380 0 0 195 0
195 -380 0 -380 0 0 240 0 240 408 2 407 3 3 198 2 197 -655 0 -655 0 0 -1065z"/>
<path d="M790 2430 l0 -80 470 0 470 0 0 -80 0 -80 -865 0 -865 0 0 -75 0 -75
941 -2 941 -3 1 -78 2 -77 -782 0 -781 0 -4 -76 c-2 -42 -1 -78 1 -80 2 -2
179 -4 393 -4 l388 0 0 -80 0 -80 -155 0 -155 0 0 -75 0 -75 -315 0 -315 0 0
-80 0 -80 390 0 390 0 0 -80 0 -80 -75 0 -75 0 0 -75 0 -75 -233 0 c-129 0
-236 -2 -238 -4 -2 -2 -3 -38 -1 -80 l4 -76 307 0 308 0 12 71 c67 371 502
528 775 278 88 -80 148 -196 158 -304 l4 -40 625 -3 625 -2 11 68 c49 318 389
493 679 351 64 -32 165 -131 196 -194 32 -63 58 -149 58 -192 l0 -33 235 0
234 0 3 78 3 77 78 3 77 3 0 234 0 235 -80 0 -80 0 0 78 0 77 -467 134 -468
133 -340 208 c-187 114 -436 267 -554 339 l-215 131 -858 0 -858 0 0 -80z"/>
<path d="M6850 2026 c-218 -47 -370 -150 -488 -334 -141 -219 -171 -554 -72
-810 96 -249 316 -405 624 -443 113 -14 327 -7 446 15 85 15 229 53 248 65 11
6 7 40 -17 166 -17 87 -32 160 -34 161 -2 2 -27 -3 -57 -12 -159 -43 -395 -56
-521 -30 -154 33 -258 122 -284 244 l-7 32 501 0 501 0 7 27 c4 16 7 93 6 173
-1 121 -5 161 -26 242 -67 257 -228 430 -457 494 -78 21 -289 27 -370 10z
m224 -320 c26 -8 62 -26 81 -40 42 -32 92 -133 101 -203 l7 -53 -287 0 c-327
0 -303 -8 -267 94 60 170 204 250 365 202z"/>
<path d="M10655 2033 c-464 -59 -746 -367 -746 -811 0 -238 61 -409 195 -551
165 -173 397 -252 696 -237 117 5 272 31 331 54 l26 10 -23 144 c-36 225 -32
211 -57 204 -149 -44 -328 -47 -429 -7 -151 59 -248 217 -248 404 0 216 128
378 329 418 74 14 212 7 286 -16 28 -8 55 -15 61 -15 9 0 72 271 77 334 2 15
-9 23 -43 33 -112 34 -336 52 -455 36z"/>
<path d="M12340 2026 c-218 -47 -370 -150 -488 -334 -141 -219 -171 -554 -72
-810 96 -249 316 -405 624 -443 113 -14 327 -7 446 15 85 15 229 53 248 65 11
6 7 40 -17 166 -17 87 -32 160 -34 161 -2 2 -27 -3 -57 -12 -159 -43 -395 -56
-521 -30 -154 33 -258 122 -284 244 l-7 32 501 0 501 0 7 27 c4 16 7 93 6 173
-1 121 -5 161 -26 242 -67 257 -228 430 -457 494 -78 21 -289 27 -370 10z
m224 -320 c26 -8 62 -26 81 -40 42 -32 92 -133 101 -203 l7 -53 -287 0 c-327
0 -303 -8 -267 94 60 170 204 250 365 202z"/>
<path d="M16033 2025 c-120 -26 -239 -99 -314 -192 -32 -41 -34 -42 -40 -20
-4 13 -10 63 -14 110 l-7 87 -210 0 -211 0 6 -152 c4 -83 7 -432 7 -775 l0
-623 240 0 239 0 3 487 3 488 24 53 c75 165 282 216 397 97 79 -81 78 -76 82
-632 l3 -493 240 0 239 0 0 518 c0 584 -5 632 -75 777 -105 219 -350 327 -612
270z"/>
<path d="M19030 2026 c-218 -47 -370 -150 -488 -334 -141 -219 -171 -554 -72
-810 96 -249 316 -405 624 -443 113 -14 327 -7 446 15 85 15 229 53 248 65 11
6 7 40 -17 166 -17 87 -32 160 -34 161 -2 2 -27 -3 -57 -12 -159 -43 -395 -56
-521 -30 -154 33 -258 122 -284 244 l-7 32 501 0 501 0 7 27 c4 16 7 93 6 173
-1 121 -5 161 -26 242 -67 257 -228 430 -457 494 -78 21 -289 27 -370 10z
m224 -320 c26 -8 62 -26 81 -40 42 -32 92 -133 101 -203 l7 -53 -287 0 c-327
0 -303 -8 -267 94 60 170 204 250 365 202z"/>
<path d="M20698 2029 c-118 -27 -243 -131 -300 -247 l-33 -67 -7 50 c-3 28 -7
84 -7 125 -2 132 19 120 -219 120 l-205 0 6 -142 c4 -79 7 -428 7 -775 l0
-633 239 0 240 0 3 443 c3 433 4 443 26 498 28 70 97 138 167 165 39 15 76 19
163 19 l112 0 0 228 0 227 -77 -1 c-43 -1 -95 -5 -115 -10z"/>
<path d="M9370 1235 l0 -775 240 0 240 0 0 775 0 775 -240 0 -240 0 0 -775z"/>
<path d="M14630 1235 l0 -775 240 0 240 0 0 775 0 775 -240 0 -240 0 0 -775z"/>
<path d="M1308 1075 c-64 -21 -149 -100 -179 -167 -51 -115 -23 -262 66 -350
64 -64 116 -83 220 -83 78 0 97 4 141 27 111 58 185 194 170 310 -14 103 -81
199 -171 246 -62 32 -176 40 -247 17z"/>
<path d="M3493 1069 c-64 -25 -129 -87 -163 -154 -36 -71 -36 -198 0 -270 57
-117 167 -180 300 -173 126 7 214 69 268 186 21 47 24 64 20 136 -7 123 -57
205 -160 261 -72 39 -187 45 -265 14z"/>
<path d="M13210 252 c0 -24 18 -38 31 -25 6 6 2 16 -11 28 -19 18 -20 18 -20
-3z"/>
</g>
</svg>
